<?xml version="1.0" encoding="UTF-8"?>
<svg version="1.1" xmlns="http://www.w3.org/2000/svg" width="495" height="495">
<path d="M0 0 C1.00643555 0.20898926 2.01287109 0.41797852 3.04980469 0.63330078 C39.58492693 8.39745044 75.70313026 24.61929527 104.42773438 48.68798828 C105.97223605 49.97683176 107.54068318 51.23680471 109.109375 52.49609375 C123.10986634 63.84282581 136.08723336 76.74780805 146.7421875 91.29785156 C148.03039472 93.04113199 149.35456407 94.75167698 150.6875 96.4609375 C172.57611116 124.88613693 186.64044443 159.07254529 194 194 C194.31759277 195.46759766 194.31759277 195.46759766 194.64160156 196.96484375 C201.01763983 227.72341819 200.6107068 262.33239924 194 293 C193.79101074 294.00643555 193.58202148 295.01287109 193.36669922 296.04980469 C185.60254956 332.58492693 169.38070473 368.70313026 145.31201172 397.42773438 C144.02316824 398.97223605 142.76319529 400.54068318 141.50390625 402.109375 C130.15717419 416.10986634 117.25219195 429.08723336 102.70214844 439.7421875 C100.95886801 441.03039472 99.24832302 442.35456407 97.5390625 443.6875 C69.11386307 465.57611116 34.92745471 479.64044443 0 487 C-1.46759766 487.31759277 -1.46759766 487.31759277 -2.96484375 487.64160156 C-33.72341819 494.01763983 -68.33239924 493.6107068 -99 487 C-100.50965332 486.68651611 -100.50965332 486.68651611 -102.04980469 486.36669922 C-138.58492693 478.60254956 -174.70313026 462.38070473 -203.42773438 438.31201172 C-204.97223605 437.02316824 -206.54068318 435.76319529 -208.109375 434.50390625 C-222.10986634 423.15717419 -235.08723336 410.25219195 -245.7421875 395.70214844 C-247.03039472 393.95886801 -248.35456407 392.24832302 -249.6875 390.5390625 C-271.57611116 362.11386307 -285.64044443 327.92745471 -293 293 C-293.31759277 291.53240234 -293.31759277 291.53240234 -293.64160156 290.03515625 C-300.01763983 259.27658181 -299.6107068 224.66760076 -293 194 C-292.68651611 192.49034668 -292.68651611 192.49034668 -292.36669922 190.95019531 C-284.60254956 154.41507307 -268.38070473 118.29686974 -244.31201172 89.57226562 C-243.02316824 88.02776395 -241.76319529 86.45931682 -240.50390625 84.890625 C-229.15717419 70.89013366 -216.25219195 57.91276664 -201.70214844 47.2578125 C-199.95886801 45.96960528 -198.24832302 44.64543593 -196.5390625 43.3125 C-168.11386307 21.42388884 -133.92745471 7.35955557 -99 0 C-97.53240234 -0.31759277 -97.53240234 -0.31759277 -96.03515625 -0.64160156 C-65.27658181 -7.01763983 -30.66760076 -6.6107068 0 0 Z " fill="#3558B0" transform="translate(297,4)"/>
<path d="M0 0 C50.35669242 -1.7327034 96.18917362 13.99809228 133.73535156 47.8125 C156.42319361 69.71800267 170.64036056 97.42424225 180.15625 127.04833984 C180.67893618 128.67226096 181.21473938 130.29195796 181.75488281 131.91015625 C190.96177539 161.90524313 189.59783971 197.80809794 174.99707031 225.765625 C171.7933482 231.67454783 168.23675182 237.00099557 163.80957031 242.078125 C163.12121094 242.88636719 162.43285156 243.69460938 161.72363281 244.52734375 C149.95020437 258.01514862 136.46841221 267.59692286 120.80957031 276.078125 C119.8534082 276.59922852 119.8534082 276.59922852 118.87792969 277.13085938 C109.14099074 282.38278756 99.47527396 286.18093907 88.80957031 289.078125 C88.03645508 289.29065918 87.26333984 289.50319336 86.46679688 289.72216797 C81.76746576 291.00697907 77.06312022 292.27224179 72.33544922 293.44897461 C70.54223393 293.89563185 68.75317987 294.35914555 66.96728516 294.83422852 C57.63381674 297.19210347 48.37767667 298.05677755 38.80957031 298.765625 C37.99187164 298.82882935 37.17417297 298.89203369 36.33169556 298.95715332 C24.64943944 299.85577743 13.03138329 300.5412658 1.31005859 300.15625 C-1.45172333 300.06996117 -4.21281502 300.02800487 -6.97558594 299.984375 C-21.01775145 299.67630362 -34.45232769 297.95955181 -48.19042969 295.078125 C-49.53814453 294.7994458 -49.53814453 294.7994458 -50.91308594 294.51513672 C-91.61532314 285.93182287 -129.77488227 267.72318292 -153.19042969 232.078125 C-154.54909149 229.825869 -155.84156958 227.56983709 -157.05761719 225.23828125 C-158.0267005 223.39033963 -159.08467873 221.58948424 -160.15917969 219.80078125 C-162.23208002 216.18260165 -163.61731249 212.43834823 -164.81542969 208.453125 C-165.02707764 207.75074707 -165.23872559 207.04836914 -165.45678711 206.32470703 C-173.29086182 179.47633129 -169.99908677 148.33424848 -161.19042969 122.078125 C-160.93777344 121.30807129 -160.68511719 120.53801758 -160.42480469 119.74462891 C-152.72199279 96.57483504 -140.31888672 75.42531157 -124.19042969 57.078125 C-123.36671875 56.13324219 -122.54300781 55.18835938 -121.69433594 54.21484375 C-116.8326795 48.74640523 -111.88734391 43.66951915 -106.19042969 39.078125 C-105.24683594 38.30855469 -104.30324219 37.53898437 -103.33105469 36.74609375 C-92.21655809 27.8461982 -80.33300506 20.59140625 -67.19042969 15.078125 C-66.30742187 14.67078125 -65.42441406 14.2634375 -64.51464844 13.84375 C-55.38070653 9.75053122 -45.88224561 7.42923418 -36.19042969 5.078125 C-35.41296387 4.88299316 -34.63549805 4.68786133 -33.83447266 4.48681641 C-22.46197998 1.64068082 -11.71871412 0.41796573 0 0 Z " fill="#FDFDFD" transform="translate(241.1904296875,104.921875)"/>
<path d="M0 0 C4.40239834 3.13236622 8.41698092 6.44676633 12.12890625 10.37109375 C12.65476318 10.92466553 13.18062012 11.4782373 13.72241211 12.04858398 C14.73215862 13.13353964 15.72132781 14.23812435 16.68579102 15.36352539 C18.20843976 17.11415336 18.20843976 17.11415336 20.95703125 19.0859375 C25.6893419 19.05410581 29.55950747 17.63602622 33.89453125 15.8359375 C45.35673385 11.2905813 56.7112567 7.77844293 68.95703125 6.0859375 C71.08300646 5.73767261 73.20802683 5.3835267 75.33203125 5.0234375 C77.20703125 4.7109375 79.08203125 4.3984375 80.95703125 4.0859375 C81.82054199 3.91553955 82.68405273 3.7451416 83.57373047 3.56958008 C87.69797355 2.98001986 91.71818638 2.90465926 95.87890625 2.8828125 C96.73776428 2.87711243 97.59662231 2.87141235 98.48150635 2.86553955 C100.30032127 2.85611777 102.11915306 2.84956682 103.93798828 2.84570312 C106.65690099 2.8361143 109.37501814 2.80511397 112.09375 2.7734375 C123.68936609 2.70266362 134.60426487 3.75213882 145.95703125 6.0859375 C147.04193848 6.30072754 148.1268457 6.51551758 149.24462891 6.73681641 C151.97080209 7.2971275 154.68305947 7.89616053 157.39453125 8.5234375 C158.79106934 8.84429321 158.79106934 8.84429321 160.21582031 9.17163086 C167.6271889 10.9191905 174.59446133 13.19678892 181.58203125 16.22265625 C188.54512349 19.33740048 188.54512349 19.33740048 195.95703125 19.0859375 C197.84311133 17.07534847 199.36494297 14.92360804 200.94921875 12.66796875 C209.25236064 1.99019289 221.70677738 -4.93801308 234.95703125 -6.9140625 C251.93936941 -8.13305039 263.6295559 -4.16268755 276.70703125 6.9609375 C283.87773073 13.60757516 289.38640931 21.47207308 293.95703125 30.0859375 C294.446875 30.97023437 294.93671875 31.85453125 295.44140625 32.765625 C301.10055446 44.75157374 301.16003767 61.13279021 297.51953125 73.7734375 C294.16572101 81.82496067 288.84654792 90.17544999 281.83203125 95.4609375 C280.88328125 96.3271875 279.93453125 97.1934375 278.95703125 98.0859375 C279.15465141 103.36430833 280.78896989 107.29141411 283.14453125 111.9609375 C289.54285573 125.11314081 293.80100712 138.83051768 296.95703125 153.0859375 C297.10269531 153.73868652 297.24835938 154.39143555 297.3984375 155.06396484 C305.08654631 190.0154235 302.56261872 226.90407335 283.81640625 257.9765625 C266.6080356 284.82162072 239.05619586 305.19201458 209.1796875 315.91796875 C207.36093142 316.57713004 205.54841716 317.25681497 203.76367188 318.00317383 C197.39865015 320.6643242 191.03370395 322.53301011 184.33203125 324.1484375 C183.27371094 324.40665283 182.21539062 324.66486816 181.125 324.9309082 C156.72489425 330.80617727 132.42966698 333.66569563 107.33203125 333.5234375 C106.2531665 333.52172546 105.17430176 333.52001343 104.06274414 333.51824951 C86.40355847 333.47033699 69.33011464 332.38270994 51.95703125 329.0859375 C51.05210937 328.91803711 50.1471875 328.75013672 49.21484375 328.57714844 C44.37445237 327.64867997 39.68489417 326.49284481 34.95703125 325.0859375 C33.65226668 324.74527314 32.3461963 324.40958244 31.0390625 324.078125 C-10.16817544 313.42199808 -48.22886502 290.76657369 -70.203125 253.46875 C-88.67354515 219.50827474 -88.99268027 179.31535666 -78.4375 142.68359375 C-76.98647086 137.84162912 -75.48375425 133.01702229 -73.91796875 128.2109375 C-73.67651123 127.46739014 -73.43505371 126.72384277 -73.1862793 125.95776367 C-71.84809998 121.99358485 -70.2752231 118.64791748 -68.04296875 115.0859375 C-67.31974809 113.39241723 -66.63109615 111.68365135 -65.98046875 109.9609375 C-64.85393176 106.98398433 -63.82624127 104.76084629 -62.04296875 102.0859375 C-62.22387674 97.95951236 -64.95804795 95.83729957 -67.73046875 93.0234375 C-72.63285024 87.84356272 -76.06764363 82.55726964 -79.04296875 76.0859375 C-79.45546875 75.27125 -79.86796875 74.4565625 -80.29296875 73.6171875 C-85.68300901 61.48959692 -84.36787553 46.84018888 -79.71484375 34.7109375 C-71.27274176 16.40656683 -59.53727436 2.12661343 -40.234375 -5.1875 C-26.57843538 -9.71513773 -12.0310608 -7.56767624 0 0 Z M93.19921875 18.06640625 C83.68166458 18.28604212 74.58872704 20.2713525 65.33203125 22.3359375 C64.34932755 22.55239426 64.34932755 22.55239426 63.34677124 22.77322388 C28.58874877 30.51179836 -4.54113764 49.03365472 -27.04296875 77.0859375 C-27.78804687 78.00503906 -28.533125 78.92414063 -29.30078125 79.87109375 C-44.13702179 98.47695654 -56.10062348 119.22960075 -63.04296875 142.0859375 C-63.39875 143.25125 -63.75453125 144.4165625 -64.12109375 145.6171875 C-70.77883801 169.66456231 -73.17155561 196.73008798 -67.04296875 221.0859375 C-66.76453125 222.21257812 -66.48609375 223.33921875 -66.19921875 224.5 C-58.22871689 253.29000241 -35.27382993 276.53153583 -10.04296875 291.0859375 C-9.40810547 291.45493164 -8.77324219 291.82392578 -8.11914062 292.20410156 C11.16352868 303.29314444 33.13933405 310.11259461 54.95703125 314.0859375 C55.63459473 314.21597168 56.3121582 314.34600586 57.01025391 314.47998047 C69.66948457 316.8816982 82.20374707 317.7442465 95.07568359 318.02294922 C96.87571165 318.06229909 98.67560556 318.10948589 100.47509766 318.16845703 C155.1011488 319.95303524 212.15240184 307.88003259 253.75390625 270.578125 C267.63522329 257.17101444 278.64741594 240.04389173 282.95703125 221.0859375 C283.10366211 220.44672363 283.25029297 219.80750977 283.40136719 219.14892578 C290.32893505 187.7365025 285.04813104 154.18196252 271.95703125 125.0859375 C271.14274988 123.04498065 270.3302796 121.00330038 269.51953125 118.9609375 C267.52766206 114.17170969 265.1698551 109.82974434 262.4140625 105.44140625 C261.05151313 103.23867898 259.84333684 101.00555851 258.64453125 98.7109375 C244.97667882 74.04844037 221.19694121 51.4628415 195.95703125 39.0859375 C194.99410156 38.58707031 194.03117187 38.08820313 193.0390625 37.57421875 C190.03275354 36.03022825 187.00482056 34.54617076 183.95703125 33.0859375 C182.66152344 32.45365234 182.66152344 32.45365234 181.33984375 31.80859375 C164.62477816 24.2262524 146.05894331 21.17542011 127.95703125 19.0859375 C126.95027344 18.95445313 125.94351563 18.82296875 124.90625 18.6875 C116.44278787 17.71347792 107.8692443 17.9174878 99.36425781 18.05322266 C97.30942984 18.08114831 95.25420871 18.07708707 93.19921875 18.06640625 Z " fill="#020203" transform="translate(142.04296875,86.9140625)"/>
<path d="M0 0 C13.76015681 -0.42833173 26.41735942 3.43324838 36.63671875 12.90625 C45.14928964 22.06424122 47.68482718 32.98824648 47.453125 45.17578125 C47.16643614 49.63993633 46.35810702 53.82692195 45.26171875 58.15625 C45.101875 58.9090625 44.94203125 59.661875 44.77734375 60.4375 C39.80922876 80.57850673 24.72989783 96.18376041 7.57421875 106.78125 C-5.62445008 114.15452906 -18.80663661 117.75340696 -33.7890625 114.4921875 C-44.48850869 110.6650139 -51.6917235 103.15760991 -56.73828125 93.15625 C-63.78226651 75.62122286 -63.59414106 57.74085526 -56.1953125 40.390625 C-47.79436986 22.62753347 -34.38893936 9.86626794 -15.98828125 2.78125 C-10.565603 0.97111204 -5.67060866 0.32357253 0 0 Z " fill="#020202" transform="translate(177.73828125,189.84375)"/>
<path d="M0 0 C0.73992187 0.55042969 1.47984375 1.10085937 2.2421875 1.66796875 C14.90701382 11.94444547 22.3207241 27.97149403 24.7109375 43.90625 C26.1665571 59.48531382 25.31319843 73.96484433 15.66015625 87.07421875 C9.15620066 94.61880723 1.21424674 100.41245788 -8.92578125 101.23828125 C-28.45032447 101.66615475 -45.73073035 94.13189992 -59.99609375 81.0390625 C-73.73279814 67.62304229 -83.13425332 48.27010531 -83.4375 29.0625 C-83.35493266 16.41396962 -79.73369653 7.0361868 -71 -2.08984375 C-50.75689853 -21.50153212 -20.71697804 -15.55629713 0 0 Z " fill="#020202" transform="translate(359,204)"/>
<path d="M0 0 C6.18932039 5.26092233 6.18932039 5.26092233 6.8828125 9.421875 C7.14357127 15.15856795 6.28590888 19.65538251 2.5 24.125 C-2.63334387 29.3733475 -8.34979367 33.5541898 -14.53125 37.484375 C-16.74125654 39.32604711 -17.15814124 40.31687445 -17.5 43.125 C-9.44520422 51.13241462 0.4490848 57.22166927 12 57.375 C17.76609949 57.35122227 22.54944084 56.50850817 28.0234375 54.796875 C32.66172018 53.53853964 36.91577146 53.59692382 41.5 55.125 C43.83043558 58.62065336 44.08763244 60.0115729 43.5 64.125 C38.70367353 69.94911072 28.72942697 71.99161952 21.5 73.125 C6.83672097 74.01472055 -7.87814669 71.92650268 -19.66796875 62.3671875 C-20.27253906 61.81289063 -20.87710938 61.25859375 -21.5 60.6875 C-24.08582406 57.8714075 -24.08582406 57.8714075 -26.40234375 58.26171875 C-28.95099887 59.31060661 -30.86551218 60.71006689 -33.0625 62.375 C-46.24706253 71.78978292 -60.94947003 75.16778414 -77.00390625 72.5546875 C-89.47246221 69.85955026 -89.47246221 69.85955026 -94.4375 65.375 C-96.02898953 62.00478687 -95.41679289 59.66120117 -94.5 56.125 C-90.77817752 53.64378502 -87.8075404 53.65332086 -83.5 54.125 C-82.28183594 54.45113281 -81.06367188 54.77726562 -79.80859375 55.11328125 C-69.16269759 57.86962032 -56.91955493 57.49870446 -47.02734375 52.62890625 C-38.97015731 48.14039869 -38.97015731 48.14039869 -33.875 41 C-33.689375 40.071875 -33.689375 40.071875 -33.5 39.125 C-34.05042969 38.86074219 -34.60085937 38.59648437 -35.16796875 38.32421875 C-43.83765555 33.8659376 -54.73099025 27.65837761 -58.5 18.125 C-59.20832758 12.19899178 -59.06691369 7.11867917 -55.5 2.125 C-42.91729241 -9.46433594 -13.99100071 -7.49517895 0 0 Z " fill="#050505" transform="translate(277.5,265.875)"/>
<path d="M0 0 C1.2684375 -0.00386719 1.2684375 -0.00386719 2.5625 -0.0078125 C4.84698944 0.11666289 6.80991574 0.48622543 9 1.125 C9 1.785 9 2.445 9 3.125 C9.59425781 3.22039062 10.18851563 3.31578125 10.80078125 3.4140625 C13.47418572 4.27828917 14.4189477 5.34500311 16.1875 7.5 C16.69667969 8.10585937 17.20585937 8.71171875 17.73046875 9.3359375 C21.32506944 14.4015594 20.71021533 21.23157859 20 27.125 C17.37951189 33.62942585 13.30432391 37.32307826 7 40.125 C2.54364675 41.85003997 -2.589707 41.90179793 -7.12109375 40.44140625 C-13.24946743 37.64946285 -16.62566207 33.68411201 -19.8125 27.75 C-21.68413868 22.03657667 -21.87989318 17.54154296 -19.5 12.0625 C-16.80905355 7.19957534 -12.40479705 2.32628928 -7.0625 0.44140625 C-4.68131933 0.07611149 -2.40924007 -0.00734524 0 0 Z " fill="#F9F9F9" transform="translate(182,209.875)"/>
<path d="M0 0 C5.37499011 4.88827841 8.57566922 9.42349768 9.4375 16.6875 C9.26663444 23.11936787 6.03718713 28.96281287 1.5625 33.4375 C0.716875 33.953125 -0.12875 34.46875 -1 35 C-1.886875 35.5775 -2.77375 36.155 -3.6875 36.75 C-9.33126432 38.87972238 -14.66873568 38.87972238 -20.3125 36.75 C-21.6428125 35.88375 -21.6428125 35.88375 -23 35 C-23.86625 34.46375 -24.7325 33.9275 -25.625 33.375 C-30.38748944 28.61251056 -32.22889416 23.10961673 -32.5625 16.4375 C-32.30237058 10.02396439 -29.88134687 5.95503861 -25.47265625 1.43359375 C-18.5577251 -4.74233713 -7.82537343 -4.80337963 0 0 Z " fill="#FAFAFA" transform="translate(330,213)"/>
<path d="M0 0 C0.66 0.33 1.32 0.66 2 1 C-5.26 8.26 -12.52 15.52 -20 23 C-20.66 22.67 -21.32 22.34 -22 22 C-21.56429687 21.57589844 -21.12859375 21.15179688 -20.6796875 20.71484375 C-17.66354138 17.74439682 -14.75398096 14.76981572 -12.0625 11.5 C-8.75792355 7.55237084 -4.92273371 4.31419507 -1 1 C-0.67 0.67 -0.34 0.34 0 0 Z " fill="#D6D8DF" transform="translate(136,143)"/>
<path d="M0 0 C0.66 0.33 1.32 0.66 2 1 C-2.62 5.62 -7.24 10.24 -12 15 C-12.66 14.67 -13.32 14.34 -14 14 C-9.72706118 8.76564995 -5.18419194 4.32893185 0 0 Z " fill="#070C19" transform="translate(353,90)"/>
</svg>
